<svg xmlns="http://www.w3.org/2000/svg" xmlns:xlink="http://www.w3.org/1999/xlink" viewBox="0 0 245.73 45.22"><defs><style>.cls-1{font-size:12px;font-family:Roboto-Italic, Roboto;}.cls-1,.cls-3{fill:#333;font-style:italic;}.cls-2{letter-spacing:-0.01em;}.cls-3{font-size:30.8px;font-family:Roboto-BoldItalic, Roboto;font-weight:700;}.cls-4{letter-spacing:-0.01em;}.cls-5,.cls-6{letter-spacing:0em;}.cls-6{fill:#488fcd;}.cls-7{fill:url(#linear-gradient);}</style><linearGradient id="linear-gradient" x1="31.86" y1="41.74" x2="31.86" y2="0.96" gradientUnits="userSpaceOnUse"><stop offset="0" stop-color="#488fcd"/><stop offset="1" stop-color="#006ca9"/></linearGradient></defs><title>Asset 1</title><g id="Layer_2" data-name="Layer 2"><g id="Header"><g id="Logo"><text class="cls-1" transform="translate(111.62 41.97)">nab the best lap<tspan class="cls-2" x="83.44" y="0">t</tspan><tspan x="87.19" y="0">op deals</tspan></text><text class="cls-3" transform="translate(65.72 26.35)">lap<tspan class="cls-4" x="41.2" y="0">t</tspan><tspan class="cls-5" x="50.99" y="0">op</tspan><tspan class="cls-6" x="84.99" y="0">nabber</tspan></text><path id="Laptop_Icon" data-name="Laptop Icon" class="cls-7" d="M6.09,38H57.64A1.94,1.94,0,0,0,59.57,36V2.9A1.94,1.94,0,0,0,57.64,1H6.09A1.93,1.93,0,0,0,4.16,2.9V36A1.93,1.93,0,0,0,6.09,38ZM5.81,2.9a.29.29,0,0,1,.28-.28H57.64a.28.28,0,0,1,.27.28V36a.27.27,0,0,1-.27.28H6.09A.28.28,0,0,1,5.81,36ZM63.72,39.45V41a.75.75,0,0,1-.74.75H.74A.75.75,0,0,1,0,41V39.45H26.17a1,1,0,0,0,1,.74h9.39a1,1,0,0,0,1-.74Z"/></g></g></g></svg>